<svg id="Layer_1" data-name="Layer 1" xmlns="http://www.w3.org/2000/svg" width="176" height="126" viewBox="0 0 176 126"><g id="app"><g id="Group_21560" data-name="Group 21560"><rect id="Rectangle_240" data-name="Rectangle 240" x="57" y="27" width="118" height="98" rx="4" style="fill:#ededec;stroke:#747474;stroke-miterlimit:10;stroke-width:2px"/></g><path id="Rectangle_241" data-name="Rectangle 241" d="M61,28H171a3,3,0,0,1,3,3V42H58V31A3,3,0,0,1,61,28Z" style="fill:#fff"/><path id="Path_496" data-name="Path 496" d="M169.4,35a3,3,0,1,1-3-3A3,3,0,0,1,169.4,35Zm-14-3a3,3,0,1,0,3,3A3,3,0,0,0,155.4,32Zm-12,0a3,3,0,1,0,3,3A3,3,0,0,0,143.4,32Z" style="fill:#ededec"/></g><rect x="63" y="48" width="31" height="48" rx="2" style="fill:#fff"/><rect x="63" y="100" width="31" height="18" rx="2" style="fill:#fff"/><rect x="98" y="48" width="70" height="22" rx="2" style="fill:#fff"/><rect x="98" y="74" width="70" height="44" rx="2" style="fill:#fff"/><line id="Line_121" data-name="Line 121" x1="102" y1="53" x2="118" y2="53" style="fill:none;stroke:#fae04b;stroke-miterlimit:10;stroke-width:2px"/><line id="Line_121-2" data-name="Line 121-2" x1="123" y1="53" x2="161" y2="53" style="fill:none;stroke:#8f8f8f;stroke-miterlimit:10;stroke-width:2px"/><line id="Line_121-3" data-name="Line 121-3" x1="102" y1="58" x2="121" y2="58" style="fill:none;stroke:#8f8f8f;stroke-miterlimit:10;stroke-width:2px"/><line id="Line_121-4" data-name="Line 121-4" x1="68" y1="104" x2="87" y2="104" style="fill:none;stroke:#ccc;stroke-miterlimit:10;stroke-width:2px"/><line id="Line_121-5" data-name="Line 121-5" x1="68" y1="109" x2="81" y2="109" style="fill:none;stroke:#ccc;stroke-miterlimit:10;stroke-width:2px"/><line id="Line_121-6" data-name="Line 121-6" x1="68" y1="114" x2="87" y2="114" style="fill:none;stroke:#ccc;stroke-miterlimit:10;stroke-width:2px"/><path d="M68,54h2m2,0h8" style="fill:none;stroke:#8f8f8f;stroke-miterlimit:10;stroke-width:2px"/><path d="M74,59h2M74,69h2m-2,5h2m-2,5h2m-2,5h2m-2,5h2M74,64h2m2-5h8M78,69h8m-8,5h5m-5,5h8m-8,5h5m-5,5h8M78,64h5" style="fill:none;stroke:#8f8f8f;stroke-miterlimit:10;stroke-width:2px"/><path d="M118,81h3m-3,10h3m-3,5h4m-4,5h3m-3,5h4m-4,5h3m-3-25h4" style="fill:none;stroke:#8f8f8f;stroke-miterlimit:10;stroke-width:2px"/><path d="M153,81h5m-5,10h5m-5,5h8m-8,5h8m-8,5h5m-5,5h8m-8-25h8" style="fill:none;stroke:#8f8f8f;stroke-miterlimit:10;stroke-width:2px"/><path d="M108,111h-5m5-10h-5m8-5h-8m8-5h-8m5-5h-5m8-5h-8m8,25h-8" style="fill:none;stroke:#8f8f8f;stroke-miterlimit:10;stroke-width:2px"/><path d="M128,81h19M128,91h19m-19,5h19m-19,5h12m-12,5h19m-19,5h12M128,86h12" style="fill:none;stroke:#8f8f8f;stroke-miterlimit:10;stroke-width:2px"/><line id="Line_121-7" data-name="Line 121-7" x1="102" y1="63" x2="110" y2="63" style="fill:none;stroke:#fae04b;stroke-miterlimit:10;stroke-width:2px"/><line id="Line_121-8" data-name="Line 121-8" x1="115" y1="63" x2="133" y2="63" style="fill:none;stroke:#8f8f8f;stroke-miterlimit:10;stroke-width:2px"/><line x1="69" y1="58" x2="69" y2="90" style="fill:none;stroke:#ccc;stroke-miterlimit:10;stroke-width:2px"/><polygon points="40.19 56.88 45.51 62.15 33.99 73.57 28.67 68.3 40.19 56.88" style="fill:#fff;stroke:#747474;stroke-miterlimit:10;stroke-width:2px;fill-rule:evenodd"/><path d="M3.82,88.54,24.29,68.25a6.24,6.24,0,0,1,8.77,0l1,1a6.11,6.11,0,0,1,0,8.64l0,0L13.56,98.2a6.24,6.24,0,0,1-8.77,0l-1-1a6.09,6.09,0,0,1,0-8.61ZM29.4,37c0,19.33,15.89,35,35.5,35s35.5-15.67,35.5-35S84.51,2,64.9,2,29.4,17.67,29.4,37Z" style="fill:#fff;stroke:#747474;stroke-miterlimit:10;stroke-width:2px"/><ellipse cx="64.9" cy="37" rx="28.5" ry="28" style="fill:#fae04b;stroke:#747474;stroke-miterlimit:10;stroke-width:2px"/><path d="M81,50.53A21.3,21.3,0,0,1,64.56,58.2" style="fill:none;stroke:#fff;stroke-linecap:round;stroke-linejoin:round;stroke-width:2px"/><path d="M85.82,37.13a20.63,20.63,0,0,1-1.67,8.2" style="fill:none;stroke:#fff;stroke-linecap:round;stroke-linejoin:round;stroke-width:2px"/></svg>