<svg xmlns="http://www.w3.org/2000/svg" width="195" height="44.4" viewBox="0 0 195 44.4"><defs><style>.a{fill:#444;}.b{fill:#f99d1c;}</style></defs><title>sw-logo-svg</title><path class="a" d="M5.1,44.4a13.2585,13.2585,0,0,1-5-.9V40.9a22.9718,22.9718,0,0,0,5,1c1.6,0,3.3-.3,3.3-2.3,0-1.5-1.1-1.9-2.5-2.3L4.5,37C2.8,36.5,0,35.8,0,32.4c0-3.8,3.1-4.7,6.3-4.7a9.8418,9.8418,0,0,1,4.5.9v2.5a11.9367,11.9367,0,0,0-4.6-1c-2,0-3.3.4-3.3,2.1,0,1.5,1.2,1.9,2.6,2.2l1.5.5c1.9.5,4.2,1.6,4.2,4.6.1,3.8-2.7,4.9-6.1,4.9m17,0c3,0,7.5-.9,7.5-8.4,0-7.4-4.6-8.4-7.5-8.4-3.1,0-7.5,1.2-7.5,8.4,0,7.4,4.3,8.4,7.5,8.4m0-14.5c1.7,0,4.5.4,4.5,6.1,0,5.5-3,6.1-4.5,6.1-1.2,0-4.5-.4-4.5-6.1,0-5.6,2.8-6.1,4.5-6.1M33.5,44.1h3V22.6h-3V44.1Zm20.7,0V33.2c0-4.2-2.4-5.5-6-5.5a18.6408,18.6408,0,0,0-6.1,1.1v2.5a20.3,20.3,0,0,1,5.6-1.1c2.1,0,3.3.5,3.3,2.6v1.4H47.4c-2.6,0-6.8.9-6.8,5.3,0,4.1,2.7,5,5.2,5a7.1209,7.1209,0,0,0,5.3-2.4l.3,2.1,2.8-.1Zm-3-4.2S49,42,46.8,42c-1.6,0-2.9-.6-2.9-2.7,0-2.6,1.6-3.3,4.4-3.4h2.9Zm14-9.5a6.0666,6.0666,0,0,1,2.5.5V28.1a4.2941,4.2941,0,0,0-2.2-.4,4.1961,4.1961,0,0,0-3.8,2.5L61.3,28H59V44.1h3V32.3s1.4-1.9,3.2-1.9M96,27.9H92.6l-1.9,9.3c-.5,2.4-1,5.5-1,5.5s-.7-3.4-1.3-5.5l-2.8-9.3H81.2l-2.8,9.3c-.6,2.1-1.3,5.5-1.3,5.5s-.5-3.3-1-5.5l-2-9.3H70.6L75,44.1h4.2l2.5-8.6c.6-2.2,1.7-6,1.7-6s1,3.8,1.6,6.1l2.5,8.6h4.2Zm3.8,16.2h3V27.8h-3Zm22.1,0v-11c0-4.1-2.3-5.4-5.2-5.4a9.9377,9.9377,0,0,0-6.1,2.6L110,28h-2.3V44.1h3V32.3a10.1889,10.1889,0,0,1,5.3-2c2.1,0,2.9.8,2.9,2.8v11Zm18.2,0V22.6h-3v6.6a5.8476,5.8476,0,0,0-4.3-1.6c-2.2,0-7.3,1-7.3,8.4,0,7.2,4.2,8.4,6.7,8.4a6.63,6.63,0,0,0,5.2-2.3l.3,2Zm-3-4a7.6352,7.6352,0,0,1-4.3,1.9c-1.9,0-4.3-.6-4.3-6,0-5.1,2.3-5.9,4.6-5.9a6.4517,6.4517,0,0,1,4,1.6v8.4Zm12.4,4.3c3.4,0,6.1-1,6.1-4.9,0-3-2.4-4.1-4.2-4.6l-1.6-.4c-1.4-.4-2.6-.7-2.6-2.2,0-1.7,1.3-2.1,3.3-2.1a11.9367,11.9367,0,0,1,4.6,1V28.7a9.8418,9.8418,0,0,0-4.5-.9c-3.2,0-6.3.9-6.3,4.7,0,3.4,2.8,4.1,4.5,4.6l1.3.4c1.4.4,2.5.7,2.5,2.3,0,2-1.6,2.3-3.3,2.3a22.9718,22.9718,0,0,1-5-1v2.6c.1-.2,2.2.7,5.2.7"/><path class="b" d="M169.8,18.1c-2.2.6-4.4,1.1-6.6,1.8a29.0714,29.0714,0,0,0-16.3-7.3,53.2694,53.2694,0,0,1,30.8-10l-3.8,3.5S190,5.5,194,0a10.9264,10.9264,0,0,1-.5,1.7,18.3822,18.3822,0,0,1-5.9,8.3,34.49,34.49,0,0,1-8.3,4.8,76.2309,76.2309,0,0,1-9.1,3.3c-.1-.1-.3,0-.4,0m25.2-.5a89.7149,89.7149,0,0,0-30.2,3.8,28.9819,28.9819,0,0,1,5.1,7.3c8.1-4.5,19.3-10.3,25.1-11.1M170.9,31a27.9306,27.9306,0,0,1,1.8,7.7l14.1-14.5Zm7.6,7.6a1.2038,1.2038,0,1,0-1.3-1.2,1.181,1.181,0,0,0,1.3,1.2m0-2.1a.9192.9192,0,0,1,1,.9c0,.7-.5.9-1,.9a.9192.9192,0,0,1-1-.9c0-.7.5-.9,1-.9M179,38l-.1-.3c0-.1-.1-.2-.2-.3.1-.1.2-.1.2-.3,0-.3-.3-.4-.5-.4H178V38h.3v-.5h.2c.1,0,.1.2.1.3l.1.2Zm-.5-1c.2,0,.2,0,.2.2,0,.1-.1.2-.4.2V37h.2"/></svg>