<svg id="Layer_1" data-name="Layer 1" xmlns="http://www.w3.org/2000/svg" width="186" height="109" viewBox="0 0 186 109"><rect x="118" y="41" width="67" height="67" rx="4.54" style="fill:#fff;stroke:#747474;stroke-linecap:round;stroke-linejoin:round;stroke-width:2px"/><path d="M146.84,83.41a2.55,2.55,0,1,1-2.55-2.55,2.55,2.55,0,0,1,2.55,2.55Zm5.08-2.55a2.55,2.55,0,1,0,2.55,2.55,2.55,2.55,0,0,0-2.55-2.55Zm7.64,0a2.55,2.55,0,1,0,2.54,2.56h0A2.55,2.55,0,0,0,159.56,80.86Z" style="fill:#31c0d0"/><path d="M164.65,92.73a1.7,1.7,0,0,1-.28-3.39h0a1.13,1.13,0,0,1,.26,0,2.54,2.54,0,0,0,2.54-2.54V79.16A5.9,5.9,0,0,1,169,74.92a5.84,5.84,0,0,1-1.79-4.24V63.05a2.54,2.54,0,0,0-2.54-2.54,1.7,1.7,0,0,1,0-3.4,6,6,0,0,1,5.93,5.94v7.63a2.55,2.55,0,0,0,2.55,2.55h.38a1.7,1.7,0,0,1,.28,3.39h-.66a2.57,2.57,0,0,0-2.55,2.54V86.8a5.94,5.94,0,0,1-5.95,5.93Zm-25.45,0a6,6,0,0,1-5.93-5.93V79.16a2.57,2.57,0,0,0-2.55-2.54h-.39a1.7,1.7,0,0,1,0-3.39h.39a2.55,2.55,0,0,0,2.55-2.55h0V63.05a6,6,0,0,1,5.93-5.94,1.7,1.7,0,1,1,0,3.4,2.54,2.54,0,0,0-2.54,2.54v7.63a5.88,5.88,0,0,1-1.79,4.24,6,6,0,0,1,1.79,4.24V86.8a2.54,2.54,0,0,0,2.54,2.54,1.7,1.7,0,0,1,.28,3.39h-.28Z" style="fill:#747474"/><rect x="59" y="2" width="67" height="67" rx="4.54" style="fill:#fff;stroke:#747474;stroke-linecap:round;stroke-linejoin:round;stroke-width:2px"/><path d="M102,20.27V30a5,5,0,0,1-5,5H86.69a5,5,0,0,0-5,5v5.35h-3.4c-1.43,0-5.48-1.83-5.48-9.52s4-9.53,5.48-9.53H92.7V24.74H83V20.27C83,18.82,84.85,16,92.5,16S102,18.82,102,20.27ZM87.22,19.13a1.7,1.7,0,1,0,1.69,1.71h0a1.69,1.69,0,0,0-1.69-1.69h0Z" style="fill:#0078c3"/><path d="M83,50.73V41.05a5,5,0,0,1,5-5H98.31a5,5,0,0,0,5-5V25.78h3.4c1.43,0,5.48,1.83,5.48,9.52s-4,9.53-5.48,9.53H92.3v1.43H102v4.47c0,1.45-1.85,4.27-9.5,4.27S83,52.18,83,50.73Zm14.74,1.14a1.7,1.7,0,1,0-1.69-1.71h0a1.69,1.69,0,0,0,1.69,1.69h0Z" style="fill:#ffcf00"/><rect x="2" y="25" width="67" height="67" rx="4.54" style="fill:#fff;stroke:#747474;stroke-linecap:round;stroke-linejoin:round;stroke-width:2px"/><path d="M49.6,75.89H14.47a2,2,0,0,1-1.94-2.06h0a1.93,1.93,0,0,1,0-.34l6.92-30A2,2,0,0,1,21.4,42H56.53a2,2,0,0,1,1.94,2.06h0a1.93,1.93,0,0,1,0,.34l-6.92,30A2,2,0,0,1,49.6,75.89Z" style="fill:#0078c3"/><path d="M24.41,72a2,2,0,0,1-1.17-3.53l13.57-10.1-8.61-9.2a2,2,0,0,1,2.85-2.68L42.67,58.86,25.58,71.58A1.84,1.84,0,0,1,24.41,72ZM42,71.32H33.54a2,2,0,0,1,0-3.91H42a2,2,0,1,1,.92,3.89l-.08,0A2,2,0,0,1,42,71.32Z" style="fill:#fff"/></svg>