<svg id="Layer_1" data-name="Layer 1" xmlns="http://www.w3.org/2000/svg" width="109" height="105" viewBox="0 0 109 105"><path d="M14,2H64a4,4,0,0,1,4,4h0V82a4,4,0,0,1-4,4H6a4,4,0,0,1-4-4V14" style="fill:#fff;stroke:#747474;stroke-linecap:round;stroke-linejoin:round;stroke-width:2px"/><path d="M12,14H1.81L14,1.81V12A2,2,0,0,1,12,14Z" style="fill:#fff;stroke:#747474;stroke-linecap:round;stroke-linejoin:round;stroke-width:2px"/><circle cx="35.19" cy="50.19" r="18" style="fill:#b7d556"/><path d="M35,62a2,2,0,0,1-2-2V59a2,2,0,0,1,4,0v1A2,2,0,0,1,35,62Zm.19-6.81h0a2,2,0,0,1-2-2,5,5,0,0,1,2.87-4.47c2.27-1.06,3.63-2.37,3.63-3.51,0,0-.06-3-5-3-.65,0-4,.19-4,3a2,2,0,0,1-4,0c0-5.54,5.23-7,8-7,3.11,0,9,1.46,9,7,0,2.85-2,5.32-5.93,7.13a1,1,0,0,0-.57.89A2,2,0,0,1,35.19,55.19Z" style="fill:#fff"/><path d="M54,20h50a4,4,0,0,1,4,4v76a4,4,0,0,1-4,4H46a4,4,0,0,1-4-4V32" style="fill:#fff;stroke:#747474;stroke-linecap:round;stroke-linejoin:round;stroke-width:2px"/><path d="M52,32H41.81L54,19.81V30A2,2,0,0,1,52,32Z" style="fill:#fff;stroke:#747474;stroke-linecap:round;stroke-linejoin:round;stroke-width:2px"/><path d="M74,49H57V46H74Zm0,33H57V79H74Z" style="fill:#b7d556"/><path d="M64,57H95M64,64H84M64,71H78" style="fill:none;stroke:#878787;stroke-linejoin:round;stroke-width:2px"/></svg>